# xmcd
#
# Track frame offsets:
#	150
#	13359
#	28416
#	41330
#	55271
#	68490
#	82198
#	95385
#	108449
#	124060
#	135948
#	150461
#	162110
#	176038
#	187687
#	202735
#	216390
#	230422
#	245293
#	259269
#	272600
#
# Disc length: 3806 seconds
#
# Revision: 1
# Processed by: cddbd v1.5.2PL0 Copyright (c) Steve Scherf et al.
# Submitted via: EasyCDDAExtractor 6.2.0.3
#
DISCID=190edc15
DTITLE=Various Artist - Super Feest CD 1
DYEAR=2010
DGENRE=Pop
TTITLE0=Double DJ's - Boven op de berg
TTITLE1=Zware Jongens  - Jodel Jump
TTITLE2=Rob Ronalds - Hela hola
TTITLE3=Rob van Daal - Marie louise
TTITLE4=Stef Ekkel and Johnny Hoes - De Smokkelaar
TTITLE5=Maarten - Stamp op de grond
TTITLE6=Ed Nieman - leve de lol
TTITLE7=Dikdakkers - Hakkestamp
TTITLE8=Feestteam - Dromen zijn bedrog
TTITLE9=Eric dikeb - Zeg buur
TTITLE10=Gebroeders Ko - Geef mij de sleutel van jouw voordeur
TTITLE11=One Two Trio - Sjoe Sjoe Wa
TTITLE12=Ferry de Lits - Oh, luister toch
TTITLE13=Zware Jongens - De poes van tante Loes
TTITLE14=Kirk Meeldijk - Ik hou van jou
TTITLE15=Rene Becker - Een en al gezelligheid
TTITLE16=Cooldown Cafe - Polonaise Hollandaise
TTITLE17=Lawineboys - Ik ben liever vrijgezel
TTITLE18=Walter Vermeer - er is maar een WC
TTITLE19=Party Jocks - Domme Koe
TTITLE20=Jos van Oss - Zachte G harde L
EXTD=
EXTT0=
EXTT1=
EXTT2=
EXTT3=
EXTT4=
EXTT5=
EXTT6=
EXTT7=
EXTT8=
EXTT9=
EXTT10=
EXTT11=
EXTT12=
EXTT13=
EXTT14=
EXTT15=
EXTT16=
EXTT17=
EXTT18=
EXTT19=
EXTT20=
PLAYORDER=
